<svg id="Layer_1" height="512" viewBox="0 0 64 64" width="512" xmlns="http://www.w3.org/2000/svg" data-name="Layer 1"><path d="m19.756 9a1 1 0 0 1 -1-1v-4a1 1 0 0 1 2 0v4a1 1 0 0 1 -1 1z"/><path d="m27.469 11.808a1 1 0 0 1 -.765-1.643l2.571-3.065a1 1 0 1 1 1.532 1.285l-2.572 3.065a.994.994 0 0 1 -.766.358z"/><path d="m5.9 29a1 1 0 0 1 -.5-1.866l3.465-2a1 1 0 1 1 1 1.732l-3.465 2a.992.992 0 0 1 -.5.134z"/><path d="m7.939 18.916a1.031 1.031 0 0 1 -.174-.015l-3.94-.694a1 1 0 0 1 .348-1.97l3.939.694a1 1 0 0 1 -.173 1.985z"/><path d="m12.044 11.808a1 1 0 0 1 -.767-.358l-2.571-3.064a1 1 0 1 1 1.531-1.286l2.572 3.064a1 1 0 0 1 -.765 1.643z"/><path d="m15.53 25.57a8.926 8.926 0 0 0 -1.91 1 9 9 0 0 1 -1.26-11.7 1 1 0 1 1 1.64 1.14 7.006 7.006 0 0 0 1.53 9.56z"/><path d="m27.95 16.28a2.3 2.3 0 0 0 -.37-.02 9.008 9.008 0 0 0 -1.8.18 6.978 6.978 0 0 0 -6.02-3.44 6.05 6.05 0 0 0 -2.33.4 1 1 0 0 1 -.67-1.89 8.947 8.947 0 0 1 2.99-.51h.01a9.007 9.007 0 0 1 8.19 5.28z"/><path d="m55.047 43h-4.547a1 1 0 0 1 0-2h4.066a8.061 8.061 0 0 0 2.084-1.6 8.882 8.882 0 0 0 2.35-6.09 8.7 8.7 0 0 0 -4.12-7.519 1.18 1.18 0 0 1 -.579-1.008v-.254l.09-.191a6.005 6.005 0 0 0 .388-2.112c0-3.124-2.525-5.864-5.405-5.864a4.811 4.811 0 0 0 -1.5.245 1 1 0 0 1 -.621-1.9 6.822 6.822 0 0 1 2.124-.344 7.747 7.747 0 0 1 7.405 7.864 7.938 7.938 0 0 1 -.313 2.205 11 11 0 0 1 1.645 16.33 10.063 10.063 0 0 1 -2.856 2.138zm-36.547 0h-5l-.285-.255a10.015 10.015 0 0 1 -3.215-7.371c0-.3.014-.605.041-.907a1 1 0 0 1 1.992.178c-.021.243-.033.486-.033.729a8.037 8.037 0 0 0 2.278 5.626h4.222a1 1 0 1 1 0 2zm-5.65-12.029a1 1 0 0 1 -.785-1.619 8.829 8.829 0 0 1 6.935-3.445h.059a8.866 8.866 0 0 1 8.519-8.644 7.729 7.729 0 0 1 1.871.229 11.03 11.03 0 0 1 7.53-6.185 10.258 10.258 0 0 1 3.5-.261 10.5 10.5 0 0 1 3.541.941 1 1 0 1 1 -.842 1.814 8.527 8.527 0 0 0 -2.891-.764 7.991 7.991 0 0 0 -2.843.215 9.139 9.139 0 0 0 -6.432 5.675 1.23 1.23 0 0 1 -1.092.742h-.182l-.218-.069a5.819 5.819 0 0 0 -1.94-.334 6.858 6.858 0 0 0 -6.526 6.986c0 .156.005.313.014.47a1.184 1.184 0 0 1 -1.187 1.241l-.119-.007a6.868 6.868 0 0 0 -6.126 2.637 1 1 0 0 1 -.786.378z"/><path d="m29 48.571a3.83 3.83 0 0 1 -4-3.625 4.15 4.15 0 0 1 .821-2.679c.118-.182.185-.268.267-.374s.2-.264.5-.717c.874-1.343 1.514-2.612 1.52-2.625l.892-1.778.894 1.778c.006.013.646 1.282 1.52 2.624.3.456.409.6.5.72s.148.191.266.372a4.15 4.15 0 0 1 .82 2.679 3.83 3.83 0 0 1 -4 3.625zm0-7.5c-.218.37-.466.778-.738 1.2-.35.537-.485.711-.592.849a2.749 2.749 0 0 0 -.17.239 2.247 2.247 0 0 0 -.5 1.591 1.844 1.844 0 0 0 2 1.625 1.844 1.844 0 0 0 2-1.625 2.243 2.243 0 0 0 -.5-1.589 2.764 2.764 0 0 0 -.171-.24c-.106-.138-.241-.311-.592-.85-.271-.421-.52-.829-.737-1.199z"/><path d="m29 61a3.83 3.83 0 0 1 -4-3.625 4.151 4.151 0 0 1 .821-2.68c.118-.181.185-.268.266-.373s.2-.264.5-.718c.877-1.347 1.514-2.611 1.52-2.624l.893-1.78.895 1.78c.006.013.646 1.282 1.52 2.624.3.457.409.6.5.72s.147.191.264.371a4.151 4.151 0 0 1 .821 2.68 3.83 3.83 0 0 1 -4 3.625zm0-7.5c-.218.37-.467.778-.738 1.2-.35.538-.486.711-.592.849-.052.068-.1.123-.171.24a2.248 2.248 0 0 0 -.5 1.591 1.844 1.844 0 0 0 2.001 1.62 1.844 1.844 0 0 0 2-1.625 2.244 2.244 0 0 0 -.5-1.59 2.915 2.915 0 0 0 -.17-.239c-.107-.138-.241-.311-.593-.851-.271-.417-.52-.825-.737-1.195z"/><path d="m42 48.571a3.83 3.83 0 0 1 -4-3.625 4.15 4.15 0 0 1 .821-2.679c.118-.182.185-.268.267-.374s.2-.264.5-.717c.874-1.343 1.514-2.612 1.52-2.625l.892-1.778.894 1.778c.006.013.646 1.282 1.52 2.624.3.456.409.6.5.72s.148.191.266.372a4.15 4.15 0 0 1 .82 2.679 3.83 3.83 0 0 1 -4 3.625zm0-7.5c-.218.37-.466.778-.738 1.2-.35.537-.485.711-.592.849a2.749 2.749 0 0 0 -.17.239 2.247 2.247 0 0 0 -.5 1.591 2.043 2.043 0 0 0 4 0 2.243 2.243 0 0 0 -.5-1.589 2.764 2.764 0 0 0 -.171-.24c-.106-.138-.241-.311-.592-.85-.271-.421-.52-.829-.737-1.199z"/><path d="m42 61a3.83 3.83 0 0 1 -4-3.625 4.151 4.151 0 0 1 .821-2.68c.118-.181.185-.268.266-.373s.2-.264.5-.718c.877-1.347 1.514-2.611 1.52-2.624l.893-1.78.895 1.78c.006.013.646 1.282 1.52 2.624.3.457.409.6.5.72s.147.191.264.371a4.151 4.151 0 0 1 .821 2.68 3.83 3.83 0 0 1 -4 3.625zm0-7.5c-.218.37-.467.778-.738 1.2-.35.538-.486.711-.592.849-.052.068-.095.123-.171.24a2.248 2.248 0 0 0 -.5 1.591 2.043 2.043 0 0 0 4 0 2.244 2.244 0 0 0 -.5-1.59 2.915 2.915 0 0 0 -.17-.239c-.107-.138-.241-.311-.593-.851-.27-.422-.519-.83-.736-1.2z"/></svg>