<?xml version="1.0" encoding="UTF-8"?>
<svg xmlns="http://www.w3.org/2000/svg" viewBox="0 0 94.02 96" width="512" height="512"><g id="Layer_2" data-name="Layer 2"><g id="Layer_1-2" data-name="Layer 1"><path d="M45.22,61.49a19.19,19.19,0,0,1-14.37-6.43A20.87,20.87,0,1,1,13.08,17.38,12,12,0,0,1,30,6.94,19.39,19.39,0,0,1,45,0,19.66,19.66,0,0,1,62.17,10.31,15.12,15.12,0,0,1,79.92,23a14.45,14.45,0,0,1-.35,28.9,14.22,14.22,0,0,1-2.52-.22,12,12,0,0,1-17.9,3.88A19.27,19.27,0,0,1,45.22,61.49ZM31.07,52.78a1,1,0,0,1,.77.37,17.27,17.27,0,0,0,26.46.34,1,1,0,0,1,1.43-.09,10,10,0,0,0,15.85-3.29,1,1,0,0,1,1.14-.57A12.45,12.45,0,1,0,79.57,25h-.5a1,1,0,0,1-1-.91A13.21,13.21,0,0,0,65,12.05a13.46,13.46,0,0,0-3.09.37,1,1,0,0,1-1.13-.53A17.52,17.52,0,0,0,31.09,8.81a1,1,0,0,1-1.27.26,10,10,0,0,0-14.75,8.74V18A1.09,1.09,0,0,1,14.42,19,18.86,18.86,0,1,0,30.55,52.92,1.07,1.07,0,0,1,31.07,52.78Z"/><path d="M76.22,72.27a18.49,18.49,0,0,1-7.66-1.47,16.72,16.72,0,0,0-7-1.33,16.7,16.7,0,0,0-6.94,1.33A18.53,18.53,0,0,1,47,72.27a18.55,18.55,0,0,1-7.67-1.47,16.63,16.63,0,0,0-6.94-1.33,16.72,16.72,0,0,0-6.95,1.33,18.49,18.49,0,0,1-7.66,1.47,18.55,18.55,0,0,1-7.67-1.47,20.11,20.11,0,0,0-2.62-.87A1,1,0,1,1,8,68a23.42,23.42,0,0,1,2.86.94,16.54,16.54,0,0,0,7,1.34,16.54,16.54,0,0,0,7-1.34,18.52,18.52,0,0,1,7.66-1.46,18.52,18.52,0,0,1,7.66,1.46A16.54,16.54,0,0,0,47,70.27,16.52,16.52,0,0,0,54,68.93a18.56,18.56,0,0,1,7.66-1.46,18.52,18.52,0,0,1,7.66,1.46,16.54,16.54,0,0,0,7,1.34,16.64,16.64,0,0,0,7-1.34A23.23,23.23,0,0,1,86,68a1,1,0,0,1,1.21.73,1,1,0,0,1-.73,1.21,20.63,20.63,0,0,0-2.62.87A18.57,18.57,0,0,1,76.22,72.27Z"/><path d="M76.22,84.13a18.52,18.52,0,0,1-7.66-1.46,16.54,16.54,0,0,0-7-1.34,16.52,16.52,0,0,0-6.94,1.34A18.56,18.56,0,0,1,47,84.13a18.58,18.58,0,0,1-7.67-1.46,16.45,16.45,0,0,0-6.94-1.34,16.54,16.54,0,0,0-6.95,1.34,18.52,18.52,0,0,1-7.66,1.46,18.61,18.61,0,0,1-7.67-1.46,21.15,21.15,0,0,0-2.62-.88A1,1,0,1,1,8,79.85a23.35,23.35,0,0,1,2.86,1,16.56,16.56,0,0,0,7,1.33,16.56,16.56,0,0,0,7-1.33,18.49,18.49,0,0,1,7.66-1.47,18.49,18.49,0,0,1,7.66,1.47A16.56,16.56,0,0,0,47,82.13,16.54,16.54,0,0,0,54,80.8a18.53,18.53,0,0,1,7.66-1.47,18.49,18.49,0,0,1,7.66,1.47,16.56,16.56,0,0,0,7,1.33,16.83,16.83,0,0,0,7-1.33,23.17,23.17,0,0,1,2.85-1,1,1,0,1,1,.48,1.94,22.34,22.34,0,0,0-2.62.88A18.59,18.59,0,0,1,76.22,84.13Z"/><path d="M76.22,96a18.49,18.49,0,0,1-7.66-1.47,16.72,16.72,0,0,0-7-1.33,16.7,16.7,0,0,0-6.94,1.33A18.53,18.53,0,0,1,47,96a18.55,18.55,0,0,1-7.67-1.47A16.63,16.63,0,0,0,32.4,93.2a16.72,16.72,0,0,0-6.95,1.33A18.49,18.49,0,0,1,17.79,96a18.55,18.55,0,0,1-7.67-1.47,21.17,21.17,0,0,0-2.62-.87A1,1,0,0,1,8,91.72a23.42,23.42,0,0,1,2.86.94,16.54,16.54,0,0,0,7,1.34,16.72,16.72,0,0,0,7-1.33A18.33,18.33,0,0,1,32.4,91.2a18.33,18.33,0,0,1,7.66,1.47A16.72,16.72,0,0,0,47,94,16.7,16.7,0,0,0,54,92.67a18.37,18.37,0,0,1,7.66-1.47,18.33,18.33,0,0,1,7.66,1.47,16.72,16.72,0,0,0,7,1.33,16.64,16.64,0,0,0,7-1.34A23.23,23.23,0,0,1,86,91.72a1,1,0,1,1,.48,1.94,22.34,22.34,0,0,0-2.62.87A18.57,18.57,0,0,1,76.22,96Z"/></g></g></svg>
