<svg height="512" viewBox="0 0 32 32" width="512" xmlns="http://www.w3.org/2000/svg"><g id="Thunderbolt"><path d="m26.516 9.925a5.36 5.36 0 0 0 -6.454-6.514 6.24 6.24 0 0 0 -9.573.676 3 3 0 0 0 -2.461.641 5.147 5.147 0 0 0 -1.818 3.89 10.072 10.072 0 0 0 .09 1.192 3.391 3.391 0 0 0 -2.3 3.242 4.028 4.028 0 0 0 4.026 4.026h6.028l-3.191 5.535a.479.479 0 0 0 .415.719h2.322l-1.22 6.614a.479.479 0 0 0 .872.35l5.9-8.951a.479.479 0 0 0 -.4-.743l-1.7-.017 1.617-3.507h5.306a4.026 4.026 0 0 0 2.535-7.154zm-10.639 10.932a.479.479 0 0 0 .43.68l1.558.015-4.117 6.248.891-4.862a.479.479 0 0 0 -.471-.566h-2.068l3.053-5.295h2.466zm8.1-4.737h-15.958a3.069 3.069 0 0 1 -3.068-3.068 2.613 2.613 0 0 1 2.049-2.488.479.479 0 0 0 .3-.582 6.83 6.83 0 0 1 -.132-1.363 4.278 4.278 0 0 1 1.047-2.756 2.193 2.193 0 0 1 2.323-.777.4.4 0 0 0 .416-.051.454.454 0 0 0 .168-.177 5.283 5.283 0 0 1 8.422-.593.479.479 0 0 0 .5.144 4.4 4.4 0 0 1 5.464 5.557.479.479 0 0 0 .188.544 3.068 3.068 0 0 1 -1.715 5.611z" fill-rule="evenodd"/></g></svg>